<svg xmlns="http://www.w3.org/2000/svg" version="1.1" xmlns:xlink="http://www.w3.org/1999/xlink" xmlns:svgjs="http://svgjs.dev/svgjs" width="1500" height="321" viewBox="0 0 1500 321"><g transform="matrix(1,0,0,1,-0.9090909090911055,-1.2369853203106231)"><svg viewBox="0 0 396 85" data-background-color="#ffffff" preserveAspectRatio="xMidYMid meet" height="321" width="1500" xmlns="http://www.w3.org/2000/svg" xmlns:xlink="http://www.w3.org/1999/xlink"><g id="tight-bounds" transform="matrix(1,0,0,1,0.24000000000003752,0.32755062998879225)"><svg viewBox="0 0 395.5199999999999 84.3448987400224" height="84.3448987400224" width="395.5199999999999"><g><svg viewBox="0 0 395.5199999999999 84.3448987400224" height="84.3448987400224" width="395.5199999999999"><g><svg viewBox="0 0 395.5199999999999 84.3448987400224" height="84.3448987400224" width="395.5199999999999"><g id="textblocktransform"><svg viewBox="0 0 395.5199999999999 84.3448987400224" height="84.3448987400224" width="395.5199999999999" id="textblock"><g><svg viewBox="0 0 395.5199999999999 84.3448987400224" height="84.3448987400224" width="395.5199999999999"><g transform="matrix(1,0,0,1,0,0)"><svg width="395.5199999999999" viewBox="0.8833333333333333 -37 174.92010238941867 37.3" height="84.3448987400224" data-palette-color="#ff6452"><path d="M5.65 0L5.65 0Q2.3-0.5 1.3-3.08 0.3-5.65 1.7-9.6L1.7-9.6 8.3-28.35Q9.2-30.95 10.38-32.8 11.55-34.65 13.33-35.65 15.1-36.65 17.75-36.65L17.75-36.65Q21.75-36.65 23.78-34.45 25.8-32.25 27.15-28.35L27.15-28.35 33.7-9.6Q35.1-5.65 34.23-3.08 33.35-0.5 29.95 0L29.95 0Q27.2 0.35 25.18-0.65 23.15-1.65 22.75-3.9L22.75-3.9Q22.45-5.4 22.68-6.4 22.9-7.4 23.1-8L23.1-8Q23.25-8.5 23.13-8.97 23-9.45 22.35-9.45L22.35-9.45 13.05-9.45Q12.4-9.45 12.28-8.97 12.15-8.5 12.35-8L12.35-8Q12.55-7.4 12.75-6.4 12.95-5.4 12.7-3.9L12.7-3.9Q12.3-1.65 10.35-0.65 8.4 0.35 5.65 0ZM14.1-16.45L21.4-16.45 18.8-24.6Q18.7-25.1 18.48-25.38 18.25-25.65 17.75-25.65L17.75-25.65Q17.25-25.65 17.03-25.38 16.8-25.1 16.65-24.6L16.65-24.6 14.1-16.45ZM54.1 0.15L54.1 0.15Q50.75 0.15 48.57-1.15 46.4-2.45 45.02-4.9 43.65-7.35 42.55-10.85L42.55-10.85 36.95-28.8Q36.15-31.3 37.07-33.18 38-35.05 40.4-35.75L40.4-35.75Q42.6-36.4 44.4-35.48 46.2-34.55 46.85-32.35L46.85-32.35 52.3-15.05Q53.15-12.25 54.47-11.33 55.8-10.4 57.35-10.9L57.35-10.9Q58.95-11.35 59.4-12.73 59.85-14.1 59.15-16.9L59.15-16.9Q58-21.9 57.6-24.75 57.2-27.6 57.2-29.25L57.2-29.25Q57.2-32.05 58.72-34.08 60.25-36.1 63.45-36.1L63.45-36.1Q66.6-36.1 68.02-34.08 69.45-32.05 69.45-29.25L69.45-29.25Q69.45-27.6 69-25.85 68.55-24.1 67.95-22.25L67.95-22.25 63.5-8.8Q62.6-6.1 61.52-4.08 60.45-2.05 58.72-0.95 57 0.15 54.1 0.15ZM88.34 0.15L88.34 0.15Q83 0.15 79.3-2.2 75.59-4.55 73.69-8.7 71.8-12.85 71.8-18.25L71.8-18.25Q71.8-23.6 73.69-27.78 75.59-31.95 79.3-34.33 83-36.7 88.34-36.7L88.34-36.7Q93.69-36.7 97.37-34.33 101.05-31.95 102.94-27.78 104.84-23.6 104.84-18.25L104.84-18.25Q104.84-12.85 102.94-8.7 101.05-4.55 97.37-2.2 93.69 0.15 88.34 0.15ZM78.09-19.05L78.09-19.05Q78.09-17.5 78.84-16.13 79.59-14.75 81.8-13.93 84-13.1 88.34-13.1L88.34-13.1Q92.69-13.1 94.87-13.93 97.05-14.75 97.8-16.13 98.55-17.5 98.55-19.05L98.55-19.05Q98.55-20.65 97.8-21.93 97.05-23.2 94.87-23.98 92.69-24.75 88.34-24.75L88.34-24.75Q84-24.75 81.8-23.98 79.59-23.2 78.84-21.93 78.09-20.65 78.09-19.05ZM120.64 0.3L120.19 0.3Q116.19 0.3 113.24-2.02 110.29-4.35 108.69-8.43 107.09-12.5 107.09-17.65L107.09-17.65Q107.09-22.45 108.52-26.08 109.94-29.7 112.42-32.13 114.89-34.55 118.17-35.77 121.44-37 125.09-37L125.09-37Q131.79-37 135.02-35.13 138.24-33.25 138.24-30.3L138.24-30.3Q138.24-28 137.07-26.25 135.89-24.5 133.54-24.5L133.54-24.5Q131.94-24.5 130.52-24.8 129.09-25.1 127.62-25.38 126.14-25.65 124.34-25.65L124.34-25.65Q120.39-25.65 118.67-23.4 116.94-21.15 116.94-17.75L116.94-17.75Q116.94-15 118.07-13.25 119.19-11.5 121.07-10.68 122.94-9.85 125.24-9.85L125.24-9.85Q127.14-9.85 128.79-10.7 130.44-11.55 130.89-13.85L130.89-13.85 128.44-13.85Q126.69-13.85 125.74-14.93 124.79-16 124.79-17.7L124.79-17.7Q124.79-19.4 125.74-20.45 126.69-21.5 128.44-21.5L128.44-21.5 134.44-21.5Q137.69-21.5 139.02-19.78 140.34-18.05 140.34-14.65L140.34-14.65 140.34-5.3Q140.34-2.7 138.94-1.35 137.54 0 135.24 0L135.24 0Q132.79 0 131.39-1.35 129.99-2.7 129.99-5.3L129.99-5.3 129.99-8.4 129.09-8.4Q129.09-3.85 126.79-1.78 124.49 0.3 120.64 0.3L120.64 0.3ZM146.89 0L146.89 0Q143.54-0.5 142.54-3.08 141.54-5.65 142.94-9.6L142.94-9.6 149.54-28.35Q150.44-30.95 151.62-32.8 152.79-34.65 154.56-35.65 156.34-36.65 158.99-36.65L158.99-36.65Q162.99-36.65 165.02-34.45 167.04-32.25 168.39-28.35L168.39-28.35 174.94-9.6Q176.34-5.65 175.47-3.08 174.59-0.5 171.19 0L171.19 0Q168.44 0.35 166.42-0.65 164.39-1.65 163.99-3.9L163.99-3.9Q163.69-5.4 163.92-6.4 164.14-7.4 164.34-8L164.34-8Q164.49-8.5 164.37-8.97 164.24-9.45 163.59-9.45L163.59-9.45 154.29-9.45Q153.64-9.45 153.52-8.97 153.39-8.5 153.59-8L153.59-8Q153.79-7.4 153.99-6.4 154.19-5.4 153.94-3.9L153.94-3.9Q153.54-1.65 151.59-0.65 149.64 0.35 146.89 0ZM155.34-16.45L162.64-16.45 160.04-24.6Q159.94-25.1 159.72-25.38 159.49-25.65 158.99-25.65L158.99-25.65Q158.49-25.65 158.27-25.38 158.04-25.1 157.89-24.6L157.89-24.6 155.34-16.45Z" opacity="1" transform="matrix(1,0,0,1,0,0)" fill="#ff6452" class="wordmark-text-0" data-fill-palette-color="primary" id="text-0"></path></svg></g></svg></g></svg></g></svg></g></svg></g><defs></defs></svg><rect width="395.5199999999999" height="84.3448987400224" fill="none" stroke="none" visibility="hidden"></rect></g></svg></g></svg>